<svg height="100%" width="100%" id="bg-svg" viewBox="0 0 1440 700" xmlns="http://www.w3.org/2000/svg" class="transition duration-300 ease-in-out delay-150"><defs><linearGradient id="gradient"><stop offset="5%" stop-color="#002bdc88"></stop><stop offset="95%" stop-color="#32ded488"></stop></linearGradient></defs><path d="M 0,700 C 0,700 0,233 0,233 C 83.20574162679426,197.45933014354068 166.41148325358853,161.91866028708134 261,156 C 355.58851674641147,150.08133971291866 461.55980861244007,173.7846889952153 552,208 C 642.4401913875599,242.2153110047847 717.3492822966508,286.9425837320574 820,267 C 922.6507177033492,247.05741626794256 1053.043062200957,162.444976076555 1161,146 C 1268.956937799043,129.555023923445 1354.4784688995214,181.2775119617225 1440,233 C 1440,233 1440,700 1440,700 Z" stroke="none" stroke-width="0" fill="url(#gradient)" class="transition-all duration-300 ease-in-out delay-150"></path><defs><linearGradient id="gradient"><stop offset="5%" stop-color="#002bdcff"></stop><stop offset="95%" stop-color="#32ded4ff"></stop></linearGradient></defs><path d="M 0,700 C 0,700 0,466 0,466 C 69.29186602870817,467.3875598086124 138.58373205741634,468.77511961722485 242,484 C 345.41626794258366,499.22488038277515 482.956937799043,528.2870813397129 601,536 C 719.043062200957,543.7129186602871 817.5885167464115,530.0765550239233 902,527 C 986.4114832535885,523.9234449760767 1056.688995215311,531.4066985645934 1144,523 C 1231.311004784689,514.5933014354066 1335.6555023923445,490.2966507177033 1440,466 C 1440,466 1440,700 1440,700 Z" stroke="none" stroke-width="0" fill="url(#gradient)" class="transition-all duration-300 ease-in-out delay-150"></path></svg>