<svg height="100%" width="100%" id="svg" viewBox="0 0 1440 700" xmlns="http://www.w3.org/2000/svg" class="transition duration-300 ease-in-out delay-150"><defs><linearGradient id="gradient"><stop offset="5%" stop-color="#002bdc88"></stop><stop offset="95%" stop-color="#32ded488"></stop></linearGradient></defs><path d="M 0,700 C 0,700 0,233 0,233 C 82.52490553074543,257.62727585022327 165.04981106149086,282.25455170044654 229,299 C 292.95018893850914,315.74544829955346 338.3256612847819,324.60906904843694 402,301 C 465.6743387152181,277.39093095156306 547.6475437993815,221.30917210580557 620,217 C 692.3524562006185,212.69082789419443 755.0841635176915,260.1542425283408 815,264 C 874.9158364823085,267.8457574716592 932.0158021298521,228.07385778083133 1001,199 C 1069.984197870148,169.92614221916867 1150.8526279628993,151.55032634833393 1226,159 C 1301.1473720371007,166.44967365166607 1370.5736860185502,199.72483682583305 1440,233 C 1440,233 1440,700 1440,700 Z" stroke="none" stroke-width="0" fill="url(#gradient)" class="transition-all duration-300 ease-in-out delay-150" transform="rotate(-180 720 350)"></path><defs><linearGradient id="gradient"><stop offset="5%" stop-color="#002bdcff"></stop><stop offset="95%" stop-color="#32ded4ff"></stop></linearGradient></defs><path d="M 0,700 C 0,700 0,466 0,466 C 47.76365510133974,447.76365510133974 95.52731020267947,429.5273102026795 172,434 C 248.47268979732053,438.4726897973205 353.65441429062184,465.65441429062173 431,499 C 508.34558570937816,532.3455857093783 557.8550326348334,571.8550326348334 611,546 C 664.1449673651666,520.1449673651666 720.9254551700446,428.92545517004476 803,398 C 885.0745448299554,367.07454482995524 992.443146684988,396.44314668498794 1063,441 C 1133.556853315012,485.55685331501206 1167.3019580900034,545.3019580900035 1224,552 C 1280.6980419099966,558.6980419099965 1360.3490209549982,512.3490209549982 1440,466 C 1440,466 1440,700 1440,700 Z" stroke="none" stroke-width="0" fill="url(#gradient)" class="transition-all duration-300 ease-in-out delay-150" transform="rotate(-180 720 350)"></path></svg>