<svg height="100%" width="100%" id="svg" viewBox="0 0 1440 700" xmlns="http://www.w3.org/2000/svg" class="transition duration-300 ease-in-out delay-150"><defs><linearGradient id="gradient"><stop offset="5%" stop-color="#002bdc88"></stop><stop offset="95%" stop-color="#32ded488"></stop></linearGradient></defs><path d="M 0,700 C 0,700 0,233 0,233 C 47.69014084507043,214.0663002404672 95.38028169014086,195.1326004809344 169,181 C 242.61971830985914,166.8673995190656 342.169014084507,157.53589831672963 431,173 C 519.830985915493,188.46410168327037 597.943661971831,228.72380625214703 652,223 C 706.056338028169,217.27619374785297 736.056338028169,165.56887667468226 798,151 C 859.943661971831,136.43112332531774 953.8309859154931,159.00068704912402 1039,188 C 1124.169014084507,216.99931295087598 1200.619718309859,252.4283751288217 1266,261 C 1331.380281690141,269.5716248711783 1385.6901408450703,251.28581243558915 1440,233 C 1440,233 1440,700 1440,700 Z" stroke="none" stroke-width="0" fill="url(#gradient)" class="transition-all duration-300 ease-in-out delay-150"></path><defs><linearGradient id="gradient"><stop offset="5%" stop-color="#002bdcff"></stop><stop offset="95%" stop-color="#32ded4ff"></stop></linearGradient></defs><path d="M 0,700 C 0,700 0,466 0,466 C 65.5946410168327,453.3108897286156 131.1892820336654,440.6217794572312 204,428 C 276.8107179663346,415.3782205427688 356.8375128821711,402.8237718996908 425,410 C 493.1624871178289,417.1762281003092 549.4606664376504,444.08313294400546 616,444 C 682.5393335623496,443.91686705599454 759.3198213672276,416.84369632428724 820,411 C 880.6801786327724,405.15630367571276 925.2600480934389,420.5420817588457 992,444 C 1058.7399519065611,467.4579182411543 1147.6399862590174,498.9879766403298 1226,504 C 1304.3600137409826,509.0120233596702 1372.1800068704913,487.50601167983507 1440,466 C 1440,466 1440,700 1440,700 Z" stroke="none" stroke-width="0" fill="url(#gradient)" class="transition-all duration-300 ease-in-out delay-150"></path></svg>