<svg height="100%" width="100%" id="bg-svg" viewBox="0 0 1440 600" xmlns="http://www.w3.org/2000/svg" class="transition duration-300 ease-in-out delay-150"><defs><linearGradient id="gradient"><stop offset="5%" stop-color="#002bdc88"></stop><stop offset="95%" stop-color="#32ded488"></stop></linearGradient></defs><path d="M 0,600 C 0,600 0,200 0,200 C 98.98564593301438,190.3444976076555 197.97129186602876,180.68899521531102 299,188 C 400.02870813397124,195.31100478468898 503.1004784688995,219.58851674641147 595,229 C 686.8995215311005,238.41148325358853 767.6267942583733,232.9569377990431 870,239 C 972.3732057416267,245.0430622009569 1096.3923444976076,262.5837320574162 1195,258 C 1293.6076555023924,253.41626794258374 1366.8038277511962,226.7081339712919 1440,200 C 1440,200 1440,600 1440,600 Z" stroke="none" stroke-width="0" fill="url(#gradient)" class="transition-all duration-300 ease-in-out delay-150"></path><defs><linearGradient id="gradient"><stop offset="5%" stop-color="#002bdcff"></stop><stop offset="95%" stop-color="#32ded4ff"></stop></linearGradient></defs><path d="M 0,600 C 0,600 0,400 0,400 C 74.92822966507177,364 149.85645933014354,328 242,346 C 334.14354066985646,364 443.5023923444976,436.00000000000006 541,438 C 638.4976076555024,439.99999999999994 724.133971291866,372 821,345 C 917.866028708134,318 1025.9617224880383,332.00000000000006 1131,348 C 1236.0382775119617,363.99999999999994 1338.0191387559807,382 1440,400 C 1440,400 1440,600 1440,600 Z" stroke="none" stroke-width="0" fill="url(#gradient)" class="transition-all duration-300 ease-in-out delay-150"></path></svg>