<svg height="100%" width="100%" id="svg" viewBox="0 0 1440 700" xmlns="http://www.w3.org/2000/svg" class="transition duration-300 ease-in-out delay-150"><defs><linearGradient id="gradient"><stop offset="5%" stop-color="#f4b40088"></stop><stop offset="95%" stop-color="#db443788"></stop></linearGradient></defs><path d="M 0,700 C 0,700 0,233 0,233 C 85.76076555023923,197.97607655502392 171.52153110047846,162.95215311004785 278,152 C 384.47846889952154,141.04784688995215 511.67464114832546,154.16746411483254 618,175 C 724.3253588516745,195.83253588516746 809.77990430622,224.37799043062205 896,231 C 982.22009569378,237.62200956937795 1069.2057416267944,222.3205741626794 1160,219 C 1250.7942583732056,215.6794258373206 1345.3971291866028,224.3397129186603 1440,233 C 1440,233 1440,700 1440,700 Z" stroke="none" stroke-width="0" fill="url(#gradient)" class="transition-all duration-300 ease-in-out delay-150"></path><defs><linearGradient id="gradient"><stop offset="5%" stop-color="#f4b400ff"></stop><stop offset="95%" stop-color="#db4437ff"></stop></linearGradient></defs><path d="M 0,700 C 0,700 0,466 0,466 C 83.15789473684208,498.3349282296651 166.31578947368416,530.6698564593302 254,532 C 341.68421052631584,533.3301435406698 433.8947368421053,503.6555023923445 525,481 C 616.1052631578947,458.3444976076555 706.1052631578948,442.70813397129194 822,462 C 937.8947368421052,481.29186602870806 1079.6842105263158,535.511961722488 1187,542 C 1294.3157894736842,548.488038277512 1367.157894736842,507.244019138756 1440,466 C 1440,466 1440,700 1440,700 Z" stroke="none" stroke-width="0" fill="url(#gradient)" class="transition-all duration-300 ease-in-out delay-150"></path></svg>