<svg height="100%" width="100%" id="svg" viewBox="0 0 1440 700" xmlns="http://www.w3.org/2000/svg" class="transition duration-300 ease-in-out delay-150"><defs><linearGradient id="gradient"><stop offset="5%" stop-color="#db443788"></stop><stop offset="95%" stop-color="#f4b40088"></stop></linearGradient></defs><path d="M 0,700 C 0,700 0,233 0,233 C 126.18181818181822,200.6937799043062 252.36363636363643,168.38755980861242 327,170 C 401.63636363636357,171.61244019138758 424.72727272727263,207.14354066985646 523,235 C 621.2727272727274,262.85645933014354 794.7272727272729,283.0382775119617 895,285 C 995.2727272727271,286.9617224880383 1022.3636363636363,270.7033492822967 1101,259 C 1179.6363636363637,247.29665071770333 1309.818181818182,240.14832535885165 1440,233 C 1440,233 1440,700 1440,700 Z" stroke="none" stroke-width="0" fill="url(#gradient)" class="transition-all duration-300 ease-in-out delay-150" transform="rotate(-180 720 350)"></path><defs><linearGradient id="gradient"><stop offset="5%" stop-color="#db4437ff"></stop><stop offset="95%" stop-color="#f4b400ff"></stop></linearGradient></defs><path d="M 0,700 C 0,700 0,466 0,466 C 65.01435406698562,447.79904306220095 130.02870813397124,429.5980861244019 241,409 C 351.97129186602876,388.4019138755981 508.8995215311006,365.40669856459334 628,392 C 747.1004784688994,418.59330143540666 828.3732057416266,494.77511961722485 899,505 C 969.6267942583734,515.2248803827752 1029.6076555023924,459.4928229665072 1118,442 C 1206.3923444976076,424.5071770334928 1323.1961722488038,445.2535885167464 1440,466 C 1440,466 1440,700 1440,700 Z" stroke="none" stroke-width="0" fill="url(#gradient)" class="transition-all duration-300 ease-in-out delay-150" transform="rotate(-180 720 350)"></path></svg>