<svg height="100%" width="100%" id="bg-svg" viewBox="0 0 1440 400" xmlns="http://www.w3.org/2000/svg" class="transition duration-300 ease-in-out delay-150"><path d="M 0,400 C 0,400 0,133 0,133 C 177.2,149.66666666666666 354.4,166.33333333333331 503,175 C 651.6,183.66666666666669 771.5999999999999,184.33333333333334 923,176 C 1074.4,167.66666666666666 1257.2,150.33333333333331 1440,133 C 1440,133 1440,400 1440,400 Z" stroke="none" stroke-width="0" fill="#9900ef88" class="transition-all duration-300 ease-in-out delay-150"></path><path d="M 0,400 C 0,400 0,266 0,266 C 140.53333333333336,257.3333333333333 281.0666666666667,248.66666666666666 451,243 C 620.9333333333333,237.33333333333334 820.2666666666667,234.66666666666669 990,239 C 1159.7333333333333,243.33333333333331 1299.8666666666668,254.66666666666666 1440,266 C 1440,266 1440,400 1440,400 Z" stroke="none" stroke-width="0" fill="#9900efff" class="transition-all duration-300 ease-in-out delay-150"></path></svg>